<svg width="88" height="87" viewBox="0 0 88 87" fill="none" xmlns="http://www.w3.org/2000/svg">
<path d="M81.5933 40.1092C81.4484 40.132 81.3008 40.132 81.1558 40.1092C80.7624 39.9751 80.3522 39.8962 79.9371 39.8748H74.2496C73.9743 39.8759 73.7035 39.8042 73.4648 39.667C73.2261 39.5298 73.0279 39.332 72.8902 39.0935L65.8746 26.9373C64.4203 27.4232 62.8552 27.4704 61.3743 27.0731C59.8934 26.6758 58.5622 25.8515 57.5465 24.7029L31.6246 39.6717C31.3849 39.8028 31.1165 39.8725 30.8433 39.8748H18.3433C17.9906 39.8869 17.6441 39.7792 17.3604 39.5692C17.0767 39.3592 16.8724 39.0594 16.7808 38.7185C16.6904 38.3845 16.7135 38.0298 16.8464 37.7103C16.9793 37.3907 17.2145 37.1243 17.5152 36.9529L59.4996 12.7498C61.2939 11.7138 63.4263 11.4331 65.4277 11.9693C67.429 12.5056 69.1354 13.8148 70.1715 15.6092L82.9527 37.7654C83.1094 38.0361 83.1813 38.3476 83.159 38.6596C83.1367 38.9716 83.0213 39.2697 82.8277 39.5154C82.6806 39.7016 82.4929 39.8519 82.279 39.9548C82.0652 40.0576 81.8307 40.1104 81.5933 40.1092ZM75.1558 36.7498H78.7496L67.4371 17.1717C66.8134 16.1006 65.791 15.3201 64.5933 15.0009C63.3957 14.6817 62.1204 14.8499 61.0465 15.4685L53.5308 19.8123L24.1871 36.7498H30.4371L57.2183 21.281C57.5808 21.0826 58.0044 21.0269 58.4058 21.1248C58.6054 21.1781 58.7923 21.2705 58.9559 21.3965C59.1195 21.5226 59.2565 21.6798 59.359 21.8592C59.4451 22.0232 59.5444 22.1799 59.6558 22.3279C60.3436 23.2493 61.3461 23.8857 62.4725 24.1162C63.5989 24.3467 64.7708 24.1551 65.7652 23.5779C65.9435 23.4746 66.1405 23.4076 66.3449 23.3807C66.5492 23.3539 66.7569 23.3677 66.9558 23.4215C67.1548 23.4752 67.3412 23.5678 67.5042 23.6938C67.6673 23.8199 67.8038 23.977 67.9058 24.156L75.1558 36.7498Z" fill="#1D428A"/>
<path d="M74.2504 39.8749H30.8441C30.4913 39.887 30.1449 39.7793 29.8612 39.5693C29.5774 39.3593 29.3732 39.0595 29.2816 38.7186C29.1912 38.3846 29.2142 38.0299 29.3471 37.7104C29.4801 37.3908 29.7153 37.1244 30.016 36.953L57.1566 21.328C57.5191 21.1296 57.9426 21.0739 58.3441 21.1718C58.5436 21.2251 58.7306 21.3175 58.8942 21.4435C59.0578 21.5696 59.1948 21.7268 59.2972 21.9061C59.3834 22.0701 59.4827 22.2269 59.5941 22.3749C60.2819 23.2962 61.2843 23.9327 62.4108 24.1632C63.5372 24.3936 64.7091 24.2021 65.7035 23.6249C65.8818 23.5216 66.0788 23.4546 66.2832 23.4277C66.4875 23.4009 66.6951 23.4147 66.8941 23.4684C67.0931 23.5222 67.2794 23.6148 67.4425 23.7408C67.6055 23.8669 67.742 24.024 67.8441 24.203L75.5629 37.578C75.7 37.8155 75.7722 38.085 75.7722 38.3593C75.7722 38.6335 75.7 38.903 75.5629 39.1405C75.4235 39.3635 75.2302 39.5476 75.0008 39.676C74.7714 39.8044 74.5132 39.8728 74.2504 39.8749ZM36.7504 36.7499H71.5472L65.8754 26.9374C64.4211 27.4233 62.856 27.4705 61.3751 27.0732C59.8942 26.6759 58.563 25.8516 57.5472 24.703L36.7504 36.7499ZM17.0629 39.8749H9.8441C9.56877 39.876 9.29804 39.8043 9.05933 39.6671C8.82061 39.5299 8.62239 39.3321 8.48473 39.0936C8.34759 38.8561 8.27539 38.5867 8.27539 38.3124C8.27539 38.0381 8.34759 37.7687 8.48473 37.5311L27.8128 4.06239C28.8356 2.27947 30.5198 0.971423 32.5003 0.421763C33.4908 0.153482 34.5248 0.0857759 35.5417 0.222619C36.5586 0.359461 37.538 0.698095 38.4222 1.21864L59.7816 13.4843C60.0221 13.6205 60.2221 13.8182 60.3612 14.057C60.5004 14.2958 60.5737 14.5672 60.5737 14.8436C60.5737 15.12 60.5004 15.3915 60.3612 15.6303C60.2221 15.8691 60.0221 16.0667 59.7816 16.203L53.5316 19.8124C53.2941 19.9495 53.0246 20.0217 52.7503 20.0217C52.4761 20.0217 52.2066 19.9495 51.9691 19.8124L40.4378 13.1405C39.4239 14.2918 38.0935 15.1191 36.6125 15.5192C35.1315 15.9193 33.5655 15.8746 32.1097 15.3905L18.4222 39.0936C18.2846 39.3321 18.0863 39.5299 17.8476 39.6671C17.6089 39.8043 17.3382 39.876 17.0629 39.8749ZM12.5472 36.7499H16.1566L30.0941 12.6093C30.1962 12.4302 30.3327 12.2731 30.4957 12.1471C30.6588 12.021 30.8451 11.9284 31.0441 11.8747C31.2431 11.821 31.4507 11.8071 31.655 11.834C31.8594 11.8608 32.0564 11.9278 32.2347 12.0311C32.7688 12.3417 33.359 12.5436 33.9714 12.6253C34.5838 12.707 35.2063 12.6668 35.8031 12.5071C36.3999 12.3474 36.9592 12.0713 37.4489 11.6946C37.9386 11.318 38.3491 10.8482 38.6566 10.3124C38.8627 9.95499 39.2018 9.69363 39.5999 9.58532C39.998 9.47701 40.4228 9.53056 40.7816 9.73426L52.7503 16.6561L55.8753 14.8436L36.9222 3.93739C35.8482 3.31873 34.573 3.15059 33.3753 3.46976C32.1777 3.78893 31.1553 4.56943 30.5316 5.64051L12.5472 36.7499Z" fill="#1D428A"/>
<path d="M79.9375 86.7501H8.0625C7.35372 86.7557 6.64806 86.6556 5.96875 86.4533C4.32595 85.9963 2.87778 85.0144 1.84522 83.6574C0.812656 82.3004 0.25242 80.6428 0.25 78.9376V44.5626C0.25 42.4906 1.0731 40.5035 2.53823 39.0384C4.00336 37.5732 5.9905 36.7501 8.0625 36.7501H79.9375C80.6411 36.7457 81.3414 36.8458 82.0156 37.047C83.6613 37.5011 85.113 38.4818 86.1486 39.8391C87.1841 41.1963 87.7466 42.8554 87.75 44.5626V78.9376C87.75 81.0096 86.9269 82.9968 85.4618 84.4619C83.9966 85.927 82.0095 86.7501 79.9375 86.7501ZM8.0625 39.8751C6.8193 39.8751 5.62701 40.369 4.74794 41.2481C3.86886 42.1272 3.375 43.3194 3.375 44.5626V78.9376C3.37888 79.96 3.71686 80.953 4.33745 81.7654C4.95803 82.5778 5.8272 83.165 6.8125 83.4376C7.21775 83.561 7.6389 83.6241 8.0625 83.6251H79.9375C81.1807 83.6251 82.373 83.1313 83.2521 82.2522C84.1311 81.3731 84.625 80.1808 84.625 78.9376V44.5626C84.6211 43.5403 84.2831 42.5473 83.6626 41.7349C83.042 40.9225 82.1728 40.3353 81.1875 40.0626C80.7817 39.9416 80.3609 39.8785 79.9375 39.8751H8.0625Z" fill="#1D428A"/>
<path d="M73.6875 80.5H14.3125C13.8981 80.5 13.5007 80.3354 13.2076 80.0424C12.9146 79.7493 12.75 79.3519 12.75 78.9375C12.75 77.6943 12.2561 76.502 11.3771 75.6229C10.498 74.7439 9.3057 74.25 8.0625 74.25C7.6481 74.25 7.25067 74.0854 6.95765 73.7924C6.66462 73.4993 6.5 73.1019 6.5 72.6875V50.8125C6.5 50.3981 6.66462 50.0007 6.95765 49.7076C7.25067 49.4146 7.6481 49.25 8.0625 49.25C9.3057 49.25 10.498 48.7561 11.3771 47.8771C12.2561 46.998 12.75 45.8057 12.75 44.5625C12.75 44.1481 12.9146 43.7507 13.2076 43.4576C13.5007 43.1646 13.8981 43 14.3125 43H73.6875C74.1019 43 74.4993 43.1646 74.7924 43.4576C75.0854 43.7507 75.25 44.1481 75.25 44.5625C75.25 45.8057 75.7439 46.998 76.6229 47.8771C77.502 48.7561 78.6943 49.25 79.9375 49.25C80.3519 49.25 80.7493 49.4146 81.0424 49.7076C81.3354 50.0007 81.5 50.3981 81.5 50.8125V72.6875C81.5 73.1019 81.3354 73.4993 81.0424 73.7924C80.7493 74.0854 80.3519 74.25 79.9375 74.25C78.6943 74.25 77.502 74.7439 76.6229 75.6229C75.7439 76.502 75.25 77.6943 75.25 78.9375C75.25 79.3519 75.0854 79.7493 74.7924 80.0424C74.4993 80.3354 74.1019 80.5 73.6875 80.5ZM15.7187 77.375H72.2812C72.5874 75.8736 73.3284 74.4954 74.4119 73.4119C75.4954 72.3284 76.8736 71.5874 78.375 71.2812V52.2188C76.8736 51.9126 75.4954 51.1716 74.4119 50.0881C73.3284 49.0046 72.5874 47.6264 72.2812 46.125H15.7187C15.4125 47.6264 14.6716 49.0046 13.5881 50.0881C12.5046 51.1716 11.1264 51.9126 9.625 52.2188V71.2812C11.1264 71.5874 12.5046 72.3284 13.5881 73.4119C14.6716 74.4954 15.4125 75.8736 15.7187 77.375V77.375Z" fill="black"/>
<path d="M73.6875 80.5H14.3125C13.8981 80.5 13.5007 80.3354 13.2076 80.0424C12.9146 79.7493 12.75 79.3519 12.75 78.9375C12.75 77.6943 12.2561 76.502 11.3771 75.6229C10.498 74.7439 9.3057 74.25 8.0625 74.25C7.6481 74.25 7.25067 74.0854 6.95765 73.7924C6.66462 73.4993 6.5 73.1019 6.5 72.6875V50.8125C6.5 50.3981 6.66462 50.0007 6.95765 49.7076C7.25067 49.4146 7.6481 49.25 8.0625 49.25C9.3057 49.25 10.498 48.7561 11.3771 47.8771C12.2561 46.998 12.75 45.8057 12.75 44.5625C12.75 44.1481 12.9146 43.7507 13.2076 43.4576C13.5007 43.1646 13.8981 43 14.3125 43H73.6875C74.1019 43 74.4993 43.1646 74.7924 43.4576C75.0854 43.7507 75.25 44.1481 75.25 44.5625C75.25 45.8057 75.7439 46.998 76.6229 47.8771C77.502 48.7561 78.6943 49.25 79.9375 49.25C80.3519 49.25 80.7493 49.4146 81.0424 49.7076C81.3354 50.0007 81.5 50.3981 81.5 50.8125V72.6875C81.5 73.1019 81.3354 73.4993 81.0424 73.7924C80.7493 74.0854 80.3519 74.25 79.9375 74.25C78.6943 74.25 77.502 74.7439 76.6229 75.6229C75.7439 76.502 75.25 77.6943 75.25 78.9375C75.25 79.3519 75.0854 79.7493 74.7924 80.0424C74.4993 80.3354 74.1019 80.5 73.6875 80.5ZM15.7187 77.375H72.2812C72.5874 75.8736 73.3284 74.4954 74.4119 73.4119C75.4954 72.3284 76.8736 71.5874 78.375 71.2812V52.2188C76.8736 51.9126 75.4954 51.1716 74.4119 50.0881C73.3284 49.0046 72.5874 47.6264 72.2812 46.125H15.7187C15.4125 47.6264 14.6716 49.0046 13.5881 50.0881C12.5046 51.1716 11.1264 51.9126 9.625 52.2188V71.2812C11.1264 71.5874 12.5046 72.3284 13.5881 73.4119C14.6716 74.4954 15.4125 75.8736 15.7187 77.375V77.375Z" fill="#0091DA"/>
<path d="M44 74.25C37.9688 74.25 33.0625 68.6406 33.0625 61.75C33.0625 54.8594 37.9688 49.25 44 49.25C50.0313 49.25 54.9375 54.8594 54.9375 61.75C54.9375 68.6406 50.0313 74.25 44 74.25ZM44 52.375C39.6875 52.375 36.1875 56.5781 36.1875 61.75C36.1875 66.9219 39.6875 71.125 44 71.125C48.3125 71.125 51.8125 66.9219 51.8125 61.75C51.8125 56.5781 48.3125 52.375 44 52.375Z" fill="#60B515"/>
</svg>
