<svg width="100" height="73" viewBox="0 0 100 73" fill="none" xmlns="http://www.w3.org/2000/svg">
<path d="M21.7391 72.598C11.5941 72.5986 2.89384 65.7035 0.576546 55.8199C-2.01241 44.7779 4.35426 33.6906 14.9315 30.2092C14.9304 30.1025 14.9295 29.9972 14.9295 29.8925C14.9318 23.1457 17.2508 16.5269 21.4594 11.2546C25.668 5.98234 31.6078 2.25425 38.1856 0.756817C45.9705 -1.01601 53.9801 0.349756 60.738 4.60166C66.9332 8.499 71.397 14.3946 73.4628 21.3468C73.7628 21.3359 74.0629 21.3302 74.3615 21.3296H74.3667C81.2138 21.3299 87.6511 23.9963 92.4928 28.8383C97.3342 33.68 100 40.1175 100 46.9647C99.9997 53.8118 97.3333 60.2494 92.4913 65.0908C87.6499 69.9322 81.213 72.5983 74.3661 72.5983C74.3655 72.5983 74.3652 72.5983 74.3649 72.5983H21.7741C21.7626 72.598 21.7503 72.598 21.7391 72.598ZM44.8696 4.59162C42.9849 4.59162 41.087 4.80333 39.2043 5.2319C33.6365 6.49927 28.6084 9.65507 25.0464 14.1181C21.4841 18.5809 19.5211 24.183 19.5191 29.8934C19.5191 30.4596 19.5432 31.0695 19.5934 31.7574L19.7354 33.7109L17.8286 34.1582C8.6208 36.3171 2.88638 45.5648 5.04532 54.7725C6.87351 62.5692 13.7376 68.0087 21.7431 68.0087C21.7523 68.0087 21.7612 68.0087 21.7707 68.0087H74.3649C79.9863 68.009 85.271 65.8203 89.2457 61.8458C93.2205 57.8712 95.4099 52.5863 95.4099 46.9652C95.4102 41.3438 93.2214 36.0592 89.2469 32.0844C85.2727 28.1099 79.9889 25.9206 74.3681 25.9203C73.5761 25.9214 72.7757 25.9676 71.9891 26.0574L69.9472 26.2906L69.4908 24.2866C67.9908 17.697 64.0143 12.086 58.2939 8.48695C54.2076 5.91579 49.581 4.59162 44.8696 4.59162Z" fill="#1D428A"/>
<path d="M37.4435 44.2016L38.647 45.4064C38.6476 45.4071 38.6483 45.4077 38.6489 45.4084C39.1885 45.9578 40.0656 45.9524 40.6075 45.4119C41.1568 44.8712 41.1509 43.9928 40.6095 43.4505L40.6094 43.4504L37.0191 39.8561C37.0184 39.8554 37.0177 39.8547 37.017 39.854C36.4768 39.3037 35.5983 39.3098 35.0566 39.8523L37.4435 44.2016ZM37.4435 44.2016C37.511 47.0108 38.6226 49.6692 40.6526 51.6953L40.6531 51.6959C42.7347 53.7799 45.5031 54.9288 48.455 54.9288C51.4063 54.9288 54.1678 53.7806 56.2571 51.6956C56.7989 51.1532 57.6777 51.1474 58.2178 51.6978C58.7573 52.2402 58.7627 53.1171 58.2143 53.6572C55.6109 56.2627 52.1376 57.7063 48.455 57.7063C44.7725 57.7063 41.2982 56.2699 38.6941 53.6555C36.125 51.0832 34.7304 47.7076 34.6715 44.1585L33.4213 45.4101L33.4211 45.4103C33.1512 45.6802 32.7983 45.819 32.4416 45.819C32.0869 45.819 31.734 45.681 31.4644 45.4119C30.9148 44.8712 30.9208 43.9927 31.4626 43.4504C31.4626 43.4504 31.4626 43.4504 31.4626 43.4504L35.0565 39.8524L37.4435 44.2016Z" fill="#65A11B" stroke="#65A11B"/>
<path d="M58.1889 40.4857L59.3925 41.6905C59.325 38.8812 58.2134 36.2229 56.1833 34.1968L56.1828 34.1962C54.1013 32.1122 51.3329 30.9633 48.3809 30.9633C45.4296 30.9633 42.6681 32.1115 40.5788 34.1965C40.037 34.7389 39.1582 34.7447 38.6181 34.1943C38.0786 33.6519 38.0732 32.775 38.6217 32.2349C41.225 29.6294 44.6983 28.1858 48.3809 28.1858C52.0636 28.1858 55.5381 29.6223 58.1422 32.2369C60.7111 34.8092 62.1056 38.1847 62.1644 41.7336L63.4146 40.482L63.4148 40.4818C63.6847 40.2119 64.0377 40.0731 64.3943 40.0731C64.749 40.0731 65.1019 40.2111 65.3715 40.4802C65.9211 41.0209 65.9152 41.8994 65.3733 42.4417L61.7794 46.0397C61.7794 46.0397 61.7794 46.0397 61.7793 46.0398C61.2376 46.5823 60.3592 46.5884 59.8189 46.0381C59.8182 46.0374 59.8175 46.0367 59.8168 46.0359L56.2266 42.4417L56.2265 42.4416C55.6851 41.8993 55.6791 41.0209 56.2284 40.4802C56.7702 39.9398 57.6472 39.9343 58.1869 40.4836C58.1876 40.4843 58.1883 40.485 58.1889 40.4857Z" fill="#E67300" stroke="#E67100"/>
</svg>
