<svg width="100" height="100" viewBox="0 0 100 100" fill="none" xmlns="http://www.w3.org/2000/svg">
<g clip-path="url(#clip0)">
<path d="M50.0001 100.127C42.1163 100.13 34.3441 98.2646 27.3205 94.6839C20.2968 91.1032 14.2215 85.9091 9.59256 79.5274C9.43793 79.315 9.32665 79.0742 9.26508 78.8188C9.2035 78.5634 9.19284 78.2983 9.2337 78.0388C9.27456 77.7793 9.36613 77.5303 9.5032 77.3062C9.64027 77.082 9.82015 76.8871 10.0326 76.7324C10.245 76.5778 10.4858 76.4665 10.7412 76.4049C10.9966 76.3434 11.2616 76.3327 11.5212 76.3736C11.7807 76.4144 12.0297 76.506 12.2538 76.6431C12.478 76.7801 12.6729 76.96 12.8276 77.1724C17.0313 82.936 22.5062 87.6538 28.8276 90.9599C35.368 94.3543 42.6288 96.1262 49.9976 96.1262C57.3664 96.1262 64.6271 94.3543 71.1676 90.9599C77.4883 87.6562 82.9632 82.941 87.1676 77.1799C87.4837 76.7616 87.9515 76.4841 88.4702 76.4073C88.9889 76.3305 89.517 76.4605 89.9408 76.7693C90.3647 77.078 90.6503 77.5409 90.7362 78.0582C90.822 78.5754 90.7013 79.1058 90.4001 79.5349C85.771 85.9142 79.6966 91.1062 72.6744 94.6855C65.6522 98.2648 57.8819 100.13 50.0001 100.127V100.127ZM6.10756 71.4999C5.72003 71.5002 5.34078 71.3879 5.0159 71.1766C4.69102 70.9653 4.43451 70.6642 4.27756 70.3099C1.07994 63.0976 -0.370807 55.2326 0.0432294 47.3541C0.457266 39.4756 2.7244 31.806 6.66038 24.9686C10.5963 18.1312 16.0901 12.319 22.6951 8.00431C29.3 3.68965 36.8299 0.994335 44.6726 0.137421C45.1977 0.0858046 45.722 0.243842 46.1312 0.577098C46.5404 0.910353 46.8013 1.39182 46.857 1.91657C46.9127 2.44133 46.7588 2.96686 46.4288 3.37863C46.0988 3.79041 45.6194 4.05506 45.0951 4.11492C37.8843 4.91696 30.9638 7.40587 24.8939 11.3801C18.824 15.3543 13.7754 20.7022 10.1568 26.9906C6.53828 33.279 4.45151 40.3312 4.06552 47.5762C3.67953 54.8211 5.00515 62.0551 7.93506 68.6924C8.04168 68.9326 8.09993 69.1914 8.1065 69.454C8.11306 69.7167 8.0678 69.9781 7.97331 70.2232C7.87882 70.4684 7.73695 70.6926 7.5558 70.8829C7.37465 71.0732 7.15777 71.2259 6.91756 71.3324C6.66192 71.4433 6.3862 71.5003 6.10756 71.4999V71.4999ZM93.8951 71.4999C93.5625 71.4996 93.2352 71.4162 92.9429 71.2575C92.6507 71.0988 92.4026 70.8697 92.2211 70.591C92.0397 70.3123 91.9306 69.9927 91.9038 69.6612C91.877 69.3297 91.9333 68.9967 92.0676 68.6924C95.0104 62.0564 96.3462 54.8197 95.9663 47.5704C95.5864 40.3211 93.5015 33.2637 89.8811 26.9717C86.2607 20.6796 81.2069 15.3305 75.1304 11.359C69.0539 7.38742 62.1261 4.90551 54.9101 4.11492C54.6474 4.0891 54.3924 4.01154 54.1598 3.88669C53.9272 3.76185 53.7217 3.5922 53.555 3.38753C53.3883 3.18286 53.2637 2.94722 53.1885 2.69419C53.1133 2.44116 53.089 2.17574 53.1169 1.91326C53.1448 1.65077 53.2243 1.39639 53.351 1.1648C53.4777 0.933213 53.6489 0.728988 53.8549 0.563904C54.0609 0.398819 54.2975 0.276142 54.5511 0.202944C54.8047 0.129747 55.0703 0.107478 55.3326 0.137421C63.1688 1.00676 70.6901 3.70956 77.2874 8.02692C83.8846 12.3443 89.3721 18.1548 93.3056 24.9878C97.2391 31.8208 99.5079 39.4843 99.9283 47.3574C100.349 55.2305 98.9086 63.0919 95.7251 70.3049C95.5689 70.6602 95.3127 70.9623 94.9877 71.1745C94.6628 71.3867 94.2831 71.4998 93.8951 71.4999Z" fill="#00A1B3"/>
<path d="M82.9798 60.6974L83.0123 60.5999C84.5509 55.9196 85.0852 50.9674 84.5803 46.0666C84.0753 41.1657 82.5425 36.4265 80.0818 32.1582C77.6212 27.89 74.288 24.1886 70.3 21.2958C66.3119 18.403 61.7586 16.3838 56.9373 15.3699C56.5911 13.8477 55.7426 12.4863 54.5283 11.5051C53.3141 10.524 51.8048 9.98021 50.2438 9.96144C48.6828 9.94267 47.161 10.45 45.9235 11.4017C44.686 12.3533 43.8049 13.6939 43.4223 15.2074L43.3273 15.2249C38.3892 16.1496 33.708 18.1265 29.6019 21.0213C25.4958 23.9161 22.0611 27.661 19.5311 32.0014C17.0011 36.3418 15.4351 41.176 14.9397 46.1754C14.4442 51.1749 15.0309 56.2224 16.6598 60.9749C15.3867 62.0238 14.5285 63.4915 14.2388 65.1154C13.9491 66.7393 14.2469 68.4132 15.0788 69.8376C15.9107 71.262 17.2224 72.3438 18.779 72.8893C20.3357 73.4348 22.0358 73.4085 23.5748 72.8149C26.8647 76.5409 30.9115 79.5223 35.4451 81.5603C39.9787 83.5982 44.8948 84.6457 49.8653 84.6329C54.8359 84.6201 59.7466 83.5474 64.2696 81.4862C68.7927 79.425 72.8241 76.4228 76.0948 72.6799C77.6649 73.3761 79.4372 73.466 81.0697 72.9324C82.7022 72.3987 84.0792 71.2792 84.9348 69.79C85.7905 68.3008 86.0642 66.5475 85.7032 64.8683C85.3421 63.1892 84.3719 61.7033 82.9798 60.6974V60.6974ZM50.1598 13.9599C50.7432 13.9599 51.3136 14.1329 51.7987 14.4571C52.2838 14.7812 52.662 15.242 52.8852 15.781C53.1085 16.3201 53.1669 16.9132 53.0531 17.4854C52.9393 18.0577 52.6583 18.5833 52.2458 18.9959C51.8332 19.4085 51.3075 19.6894 50.7353 19.8032C50.1631 19.9171 49.5699 19.8587 49.0309 19.6354C48.4918 19.4121 48.0311 19.034 47.707 18.5489C47.3828 18.0637 47.2098 17.4934 47.2098 16.9099C47.2111 16.1279 47.5223 15.3784 48.0753 14.8254C48.6282 14.2725 49.3778 13.9613 50.1598 13.9599V13.9599ZM21.0823 69.2799C20.4988 69.2799 19.9285 69.1069 19.4434 68.7828C18.9582 68.4586 18.5801 67.9979 18.3568 67.4588C18.1336 66.9198 18.0751 66.3267 18.189 65.7544C18.3028 65.1822 18.5838 64.6565 18.9963 64.244C19.4089 63.8314 19.9345 63.5504 20.5068 63.4366C21.079 63.3228 21.6722 63.3812 22.2112 63.6045C22.7502 63.8278 23.211 64.2059 23.5351 64.691C23.8593 65.1761 24.0323 65.7465 24.0323 66.3299C24.031 67.1119 23.7197 67.8615 23.1668 68.4144C22.6138 68.9674 21.8643 69.2786 21.0823 69.2799ZM71.9648 66.3299C71.9612 67.6593 72.3414 68.9614 73.0598 70.0799C70.1753 73.3712 66.6257 76.0135 62.6451 77.8322C58.6645 79.651 54.3435 80.605 49.9672 80.6312C45.5909 80.6574 41.2587 79.7553 37.2566 77.9844C33.2545 76.2134 29.6735 73.6139 26.7498 70.3574C27.5256 69.2681 27.9705 67.9781 28.0311 66.6422C28.0917 65.3063 27.7655 63.9813 27.0917 62.8262C26.4178 61.6711 25.4248 60.735 24.232 60.1304C23.0393 59.5257 21.6973 59.2782 20.3673 59.4174C18.9824 55.2551 18.4966 50.8463 18.942 46.4823C19.3875 42.1183 20.7541 37.8985 22.9514 34.1019C25.1488 30.3052 28.1269 27.0182 31.6889 24.4579C35.251 21.8977 39.3158 20.1226 43.6148 19.2499C44.092 20.5866 44.9669 21.7451 46.122 22.5698C47.2772 23.3944 48.6571 23.8457 50.0762 23.8628C51.4954 23.88 52.8858 23.4622 54.0605 22.6657C55.2353 21.8692 56.138 20.7322 56.6473 19.4074C60.859 20.3649 64.8241 22.1919 68.2885 24.7714C71.7529 27.3508 74.64 30.6257 76.7647 34.3861C78.8895 38.1465 80.205 42.3094 80.6269 46.6079C81.0488 50.9064 80.5678 55.2457 79.2148 59.3474L79.1998 59.3924C79.1073 59.3924 79.0123 59.3924 78.9173 59.3924C77.0764 59.3937 75.311 60.1246 74.0079 61.4249C72.7048 62.7252 71.9701 64.489 71.9648 66.3299V66.3299ZM78.9173 69.2799C78.3338 69.2799 77.7635 69.1069 77.2784 68.7828C76.7932 68.4586 76.4151 67.9979 76.1918 67.4588C75.9686 66.9198 75.9101 66.3267 76.024 65.7544C76.1378 65.1822 76.4188 64.6565 76.8313 64.244C77.2439 63.8314 77.7695 63.5504 78.3418 63.4366C78.914 63.3228 79.5072 63.3812 80.0462 63.6045C80.5852 63.8278 81.046 64.2059 81.3701 64.691C81.6943 65.1761 81.8673 65.7465 81.8673 66.3299C81.866 67.1119 81.5547 67.8615 81.0018 68.4144C80.4488 68.9674 79.6993 69.2786 78.9173 69.2799V69.2799ZM60.7298 38.2799C59.6551 35.2728 57.5673 32.7335 54.8246 31.0978C52.0819 29.4622 48.8554 28.8321 45.6988 29.3159C42.5423 29.7997 39.6526 31.367 37.5256 33.749C35.3986 36.131 34.1671 39.179 34.0423 42.3699C31.8381 43.2786 30.0174 44.9239 28.8908 47.025C27.7641 49.1261 27.4012 51.553 27.864 53.8918C28.3268 56.2306 29.5866 58.3365 31.4286 59.8501C33.2706 61.3638 35.5806 62.1917 37.9648 62.1924H60.3723C63.5026 62.1763 66.5019 60.9336 68.7262 58.731C70.9506 56.5283 72.2227 53.5414 72.2695 50.4114C72.3162 47.2814 71.134 44.2577 68.9765 41.9896C66.819 39.7215 63.8582 38.3896 60.7298 38.2799V38.2799ZM60.3723 58.1924H37.9648C36.4214 58.1903 34.9325 57.6217 33.7805 56.5945C32.6286 55.5673 31.8938 54.153 31.7156 52.6199C31.5373 51.0868 31.9281 49.5417 32.8137 48.2776C33.6992 47.0135 35.018 46.1185 36.5198 45.7624L38.1823 45.3749L38.0598 43.6699C38.0373 43.3924 38.0298 43.1699 38.0298 42.9499C38.0171 40.5439 38.8944 38.2182 40.493 36.4201C42.0917 34.622 44.2988 33.4784 46.6897 33.2095C49.0806 32.9405 51.4866 33.5651 53.4448 34.9631C55.403 36.3611 56.7751 38.4338 57.2973 40.7824L57.6923 42.5324L59.4723 42.3324C60.5476 42.2113 61.6364 42.3108 62.672 42.6248C63.7076 42.9389 64.6683 43.4608 65.4953 44.1588C66.3222 44.8567 66.9982 45.716 67.4817 46.6841C67.9653 47.6523 68.2463 48.7088 68.3076 49.7892C68.3689 50.8697 68.2092 51.9512 67.8382 52.9678C67.4672 53.9844 66.8928 54.9146 66.1501 55.7017C65.4073 56.4887 64.5118 57.1159 63.5184 57.545C62.525 57.9742 61.4544 58.1962 60.3723 58.1974V58.1924Z" fill="#0091DA"/>
</g>
<defs>
<clipPath id="clip0">
<rect width="100" height="100" fill="white"/>
</clipPath>
</defs>
</svg>
