<svg width="100" height="100" viewBox="0 0 100 100" fill="none" xmlns="http://www.w3.org/2000/svg">
<path d="M28.645 19.0327C31.0139 19.0416 33.2951 19.93 35.0461 21.5256C36.7972 23.1211 37.8933 25.3101 38.1218 27.668C38.3504 30.0259 37.6951 32.3846 36.2831 34.2868C34.8712 36.1889 32.8031 37.4989 30.48 37.9627C29.1725 38.2237 27.8248 38.2083 26.5237 37.9174C25.2225 37.6266 23.9966 37.0667 22.9247 36.2737C21.8529 35.4808 20.9587 34.4724 20.2999 33.3133C19.641 32.1542 19.2319 30.87 19.0989 29.5434C18.9659 28.2168 19.112 26.877 19.5277 25.6102C19.9434 24.3434 20.6196 23.1775 21.5128 22.1876C22.4059 21.1977 23.4963 20.4057 24.7139 19.8623C25.9314 19.319 27.2492 19.0364 28.5825 19.0327H28.645ZM28.595 22.8102C27.0832 22.8417 25.6439 23.4643 24.5858 24.5446C23.5277 25.6249 22.9352 27.0768 22.9352 28.589C22.9352 30.1011 23.5277 31.553 24.5858 32.6333C25.6439 33.7136 27.0832 34.3363 28.595 34.3677C31.3025 34.3677 33.9125 32.2927 34.345 29.4352C34.5211 28.2366 34.3183 27.0129 33.765 25.9352C33.2735 25.0076 32.5433 24.228 31.6498 23.6769C30.7564 23.1258 29.732 22.8231 28.6825 22.8002L28.595 22.8102Z" fill="#0065AB"/>
<path d="M50.0403 19.0327C51.6516 19.0384 53.2353 19.4514 54.6442 20.2332C56.053 21.015 57.2414 22.1404 58.0988 23.5046C58.9561 24.8689 59.4547 26.4277 59.548 28.0363C59.6414 29.6449 59.3266 31.251 58.6328 32.7052C57.897 34.2461 56.7618 35.5615 55.3452 36.5149C53.9286 37.4682 52.2824 38.0244 50.5779 38.1258C48.8734 38.2272 47.1729 37.87 45.6533 37.0913C44.1337 36.3127 42.8505 35.141 41.9372 33.6983C41.0239 32.2556 40.5139 30.5945 40.4603 28.8878C40.4066 27.1812 40.8113 25.4913 41.6322 23.9941C42.4531 22.4968 43.6602 21.2469 45.1279 20.3744C46.5956 19.5019 48.2704 19.0386 49.9778 19.0327H50.0403ZM50.0003 22.8102C48.4885 22.8417 47.0493 23.4643 45.9912 24.5446C44.9331 25.6249 44.3405 27.0768 44.3405 28.589C44.3405 30.1011 44.9331 31.553 45.9912 32.6333C47.0493 33.7136 48.4885 34.3363 50.0003 34.3677C52.7128 34.3677 55.3203 32.2727 55.7353 29.4352C55.8565 28.6184 55.8012 27.7851 55.5731 26.9915C55.345 26.1979 54.9494 25.4624 54.4131 24.8346C53.8767 24.2068 53.212 23.7013 52.4637 23.352C51.7155 23.0028 50.901 22.8181 50.0753 22.8102H50.0003Z" fill="#0065AB"/>
<path d="M71.4327 19.0327C73.8045 19.0398 76.089 19.9285 77.842 21.5261C79.5951 23.1237 80.6914 25.316 80.9181 27.677C81.1447 30.038 80.4853 32.3988 79.0682 34.3007C77.6511 36.2026 75.5774 37.5096 73.2502 37.9677C71.9429 38.2251 70.5962 38.2063 69.2966 37.9124C67.997 37.6186 66.7732 37.0563 65.7037 36.2616C64.6342 35.4669 63.7428 34.4574 63.0865 33.2978C62.4302 32.1382 62.0236 30.8543 61.8928 29.5283C61.7621 28.2023 61.91 26.8636 62.3271 25.5982C62.7442 24.3328 63.4213 23.1685 64.3149 22.1802C65.2085 21.1919 66.2989 20.4013 67.5161 19.8593C68.7333 19.3173 70.0503 19.0357 71.3827 19.0327H71.4327ZM71.3827 22.8102C69.8709 22.8417 68.4316 23.4643 67.3736 24.5446C66.3155 25.6249 65.7229 27.0768 65.7229 28.589C65.7229 30.1011 66.3155 31.553 67.3736 32.6333C68.4316 33.7136 69.8709 34.3363 71.3827 34.3677C74.0927 34.3677 76.7027 32.2727 77.1327 29.4352C77.3079 28.2366 77.1051 27.0133 76.5527 25.9352C76.0617 25.0073 75.3316 24.2274 74.438 23.6762C73.5445 23.125 72.5199 22.8226 71.4702 22.8002L71.3827 22.8102Z" fill="#60B515"/>
<path d="M28.6452 40.4629C31.1753 40.4712 33.5987 41.4831 35.3834 43.2766C37.168 45.07 38.1681 47.4983 38.1639 50.0284C38.1598 52.5585 37.1518 54.9836 35.3613 56.7712C33.5708 58.5588 31.1441 59.5628 28.614 59.5628C26.0838 59.5628 23.6571 58.5588 21.8666 56.7712C20.0761 54.9836 19.0681 52.5585 19.064 50.0284C19.0598 47.4983 20.0599 45.07 21.8445 43.2766C23.6292 41.4831 26.0526 40.4712 28.5827 40.4629H28.6452ZM28.5952 44.2379C27.2513 44.2418 25.9507 44.714 24.9173 45.5731C23.8838 46.4322 23.182 47.6246 22.9326 48.9452C22.6832 50.2657 22.9017 51.6319 23.5507 52.8088C24.1996 53.9857 25.2384 54.8996 26.4883 55.3935C27.7382 55.8873 29.1211 55.9301 30.3992 55.5146C31.6773 55.0991 32.7706 54.2513 33.4912 53.1168C34.2117 51.9824 34.5145 50.6324 34.3473 49.2989C34.1801 47.9654 33.5535 46.7318 32.5752 45.8104C31.5124 44.8235 30.1204 44.2675 28.6702 44.2504L28.5952 44.2379Z" fill="#0065AB"/>
<path d="M50.04 40.4629C52.5727 40.4712 54.9987 41.4842 56.7852 43.2795C58.5717 45.0748 59.5728 47.5057 59.5687 50.0385C59.5646 52.5712 58.5555 54.9989 56.7631 56.7883C54.9707 58.5778 52.5415 59.5829 50.0087 59.5829C47.476 59.5829 45.0467 58.5778 43.2543 56.7883C41.4619 54.9989 40.4529 52.5712 40.4487 50.0385C40.4446 47.5057 41.4457 45.0748 43.2322 43.2795C45.0188 41.4842 47.4447 40.4712 49.9775 40.4629H50.04ZM50 44.2504C48.4882 44.2818 47.0489 44.9045 45.9908 45.9848C44.9328 47.0651 44.3402 48.517 44.3402 50.0292C44.3402 51.5413 44.9328 52.9932 45.9908 54.0735C47.0489 55.1538 48.4882 55.7765 50 55.8079C52.71 55.8079 55.32 53.7129 55.735 50.8754C55.9115 49.6771 55.7096 48.4535 55.1575 47.3754C54.6634 46.4485 53.931 45.6703 53.0358 45.1209C52.1406 44.5716 51.1151 44.2711 50.065 44.2504H50Z" fill="#0065AB"/>
<path d="M71.4323 40.4629C73.9624 40.4712 76.3858 41.4831 78.1705 43.2766C79.9551 45.07 80.9552 47.4983 80.951 50.0284C80.9469 52.5585 79.9389 54.9836 78.1484 56.7712C76.3579 58.5588 73.9312 59.5628 71.4011 59.5628C68.871 59.5628 66.4443 58.5588 64.6537 56.7712C62.8632 54.9836 61.8552 52.5585 61.8511 50.0284C61.8469 47.4983 62.847 45.07 64.6317 43.2766C66.4163 41.4831 68.8397 40.4712 71.3698 40.4629H71.4323ZM71.3823 44.2379C69.8705 44.2693 68.4312 44.892 67.3732 45.9723C66.3151 47.0526 65.7225 48.5045 65.7225 50.0166C65.7225 51.5287 66.3151 52.9807 67.3732 54.061C68.4312 55.1413 69.8705 55.7639 71.3823 55.7954C74.0923 55.7954 76.7023 53.7004 77.1323 50.8629C77.3074 49.6643 77.1047 48.4409 76.5523 47.3629C76.0568 46.4376 75.3234 45.6614 74.4278 45.1142C73.5321 44.5671 72.5067 44.2689 71.4573 44.2504L71.3823 44.2379Z" fill="#0065AB"/>
<path d="M71.4325 61.855C73.809 61.8598 76.0983 62.75 77.8538 64.3519C79.6093 65.9537 80.7048 68.1523 80.9265 70.5184C81.1483 72.8845 80.4803 75.2483 79.0531 77.1485C77.6258 79.0486 75.5417 80.3487 73.2075 80.795C72.6126 80.909 72.0082 80.9659 71.4025 80.965C68.9096 80.968 66.5143 79.9967 64.7277 78.2583C62.941 76.5199 61.9045 74.1521 61.8392 71.6601C61.774 69.1681 62.6852 66.7493 64.3785 64.9198C66.0717 63.0902 68.4129 61.9949 70.9025 61.8675C71.085 61.8575 71.25 61.855 71.4325 61.855ZM71.3825 65.6325C70.1191 65.6366 68.8919 66.0545 67.8886 66.8223C66.8853 67.5901 66.1612 68.6655 65.8271 69.8839C65.493 71.1022 65.5673 72.3965 66.0386 73.5687C66.5099 74.7409 67.3522 75.7263 68.4368 76.3743C69.5213 77.0223 70.7883 77.2971 72.0438 77.1566C73.2994 77.0162 74.4743 76.4682 75.3889 75.5966C76.3035 74.7251 76.9073 73.5778 77.1079 72.3305C77.3086 71.0832 77.095 69.8044 76.5 68.69C76.0006 67.7836 75.272 67.0242 74.3871 66.4877C73.5022 65.9512 72.492 65.6563 71.4575 65.6325H71.3825Z" fill="#0065AB"/>
<path d="M50.0404 61.855C52.4169 61.8598 54.7063 62.75 56.4617 64.3519C58.2172 65.9537 59.3127 68.1523 59.5345 70.5184C59.7562 72.8845 59.0883 75.2483 57.661 77.1485C56.2338 79.0486 54.1496 80.3487 51.8154 80.795C51.2197 80.909 50.6145 80.9659 50.0079 80.965C47.5151 80.968 45.1198 79.9967 43.3331 78.2583C41.5465 76.5199 40.5099 74.1521 40.4447 71.6601C40.3794 69.1681 41.2907 66.7493 42.9839 64.9198C44.6772 63.0902 47.0184 61.9949 49.5079 61.8675C49.6929 61.8575 49.8654 61.855 50.0404 61.855ZM49.9904 65.6325C49.0178 65.6362 48.0618 65.8852 47.211 66.3564C46.3601 66.8277 45.6419 67.5059 45.1227 68.3284C44.6035 69.1509 44.3002 70.0911 44.2408 71.0619C44.1814 72.0327 44.3679 73.0028 44.783 73.8825C45.1806 74.7234 45.7753 75.456 46.5167 76.0179C47.258 76.5799 48.124 76.9546 49.0411 77.1102C49.9583 77.2659 50.8994 77.1979 51.7846 76.912C52.6698 76.6261 53.473 76.1307 54.1258 75.468C54.7786 74.8054 55.2619 73.9949 55.5345 73.1055C55.8071 72.2161 55.861 71.274 55.6916 70.3593C55.5222 69.4447 55.1346 68.5844 54.5616 67.8515C53.9887 67.1187 53.2473 66.535 52.4004 66.15C51.647 65.8067 50.8284 65.6302 50.0004 65.6325H49.9904Z" fill="#0065AB"/>
<path d="M28.6447 61.855C31.0212 61.8598 33.3106 62.75 35.066 64.3519C36.8215 65.9537 37.917 68.1523 38.1387 70.5184C38.3605 72.8845 37.6925 75.2483 36.2653 77.1485C34.838 79.0486 32.7539 80.3487 30.4197 80.795C29.8248 80.909 29.2204 80.9659 28.6147 80.965C27.3599 80.9671 26.117 80.7221 24.9569 80.2439C23.7969 79.7657 22.7423 79.0636 21.8536 78.1779C20.0586 76.389 19.0478 73.9604 19.0435 71.4262C19.0392 68.8921 20.0417 66.46 21.8306 64.6651C23.6194 62.8701 26.0481 61.8593 28.5822 61.855H28.6447ZM28.5947 65.6325C27.6223 65.6366 26.6666 65.8859 25.8161 66.3573C24.9656 66.8287 24.2477 67.507 23.7288 68.3295C23.2099 69.1519 22.9068 70.0919 22.8475 71.0625C22.7883 72.0331 22.9748 73.003 23.3897 73.8825C23.9205 75.0036 24.7979 75.9242 25.8923 76.5082C26.9866 77.0923 28.2398 77.3088 29.4666 77.1257C30.6934 76.9427 31.8288 76.3699 32.705 75.4918C33.5812 74.6138 34.1517 73.4772 34.3322 72.25C34.5042 71.0568 34.3006 69.8397 33.7497 68.7675C33.2582 67.8399 32.528 67.0603 31.6346 66.5091C30.7411 65.958 29.7167 65.6554 28.6672 65.6325H28.5947Z" fill="#0065AB"/>
<path d="M80.1852 7.79516C83.3146 7.80569 86.313 9.05318 88.5263 11.2656C90.7396 13.4779 91.9884 16.4757 92.0002 19.6052V39.6702L91.9677 40.0577C91.9352 40.1852 91.9127 40.3077 91.8702 40.4377C91.6993 40.9361 91.3669 41.3634 90.9258 41.6516C90.4846 41.9399 89.9599 42.0727 89.4347 42.0291C88.9096 41.9855 88.414 41.7679 88.0264 41.4108C87.6389 41.0537 87.3816 40.5775 87.2952 40.0577C87.2727 39.9302 87.2727 39.8077 87.2627 39.6702C87.2627 32.9777 87.2927 26.2877 87.2627 19.5977C87.2436 18.398 86.9271 17.2219 86.3415 16.1747C85.756 15.1276 84.9197 14.2421 83.9077 13.5977C82.7816 12.8985 81.4832 12.5263 80.1577 12.5227H59.4402C59.3127 12.5227 59.1902 12.5227 59.0502 12.4902C58.5351 12.3933 58.0651 12.1327 57.7101 11.747C57.3551 11.3614 57.1342 10.8715 57.0802 10.3502C57.0486 9.76156 57.2304 9.18133 57.5923 8.71607C57.9542 8.25082 58.4719 7.93181 59.0502 7.81766C59.1802 7.79766 59.3127 7.79766 59.4402 7.78516C66.3552 7.79182 73.2702 7.79516 80.1852 7.79516Z" fill="#60B515"/>
<path d="M90.5775 54.9024C90.9377 55.0613 91.2528 55.3071 91.4945 55.6177C91.7362 55.9284 91.8971 56.2943 91.9625 56.6824C91.9825 56.8099 91.9825 56.9324 91.995 57.0724C91.995 64.8374 91.995 72.6041 91.995 80.3724C91.9838 83.5012 90.736 86.4986 88.5236 88.711C86.3112 90.9234 83.3138 92.1712 80.185 92.1824C60.0683 92.2174 39.9517 92.2174 19.835 92.1824C16.7062 92.1712 13.7088 90.9234 11.4964 88.711C9.28406 86.4986 8.0362 83.5012 8.025 80.3724C7.99167 60.1241 7.99167 39.8683 8.025 19.6049C8.0362 16.4762 9.28406 13.4787 11.4964 11.2664C13.7088 9.05398 16.7062 7.80612 19.835 7.79492H39.0675L39.4575 7.82742C39.7127 7.88023 39.9603 7.96419 40.195 8.07742C40.7095 8.36946 41.1003 8.83866 41.2944 9.39754C41.4885 9.95642 41.4727 10.5668 41.25 11.1149C41.0883 11.4755 40.8401 11.7906 40.5274 12.0322C40.2147 12.2738 39.8472 12.4345 39.4575 12.4999C39.3275 12.5224 39.2075 12.5224 39.0675 12.5324C32.6525 12.5324 26.24 12.5024 19.8175 12.5324C18.6144 12.5556 17.436 12.8778 16.3886 13.47C15.3411 14.0623 14.4575 14.9059 13.8175 15.9249C13.1405 17.031 12.7775 18.3006 12.7675 19.5974C12.6692 39.8574 12.6692 60.1183 12.7675 80.3799C12.7838 81.5392 13.0785 82.6775 13.6267 83.699C14.1749 84.7206 14.9606 85.5955 15.9175 86.2499C17.0746 87.0237 18.433 87.4418 19.825 87.4524C39.9467 87.5458 60.0692 87.5458 80.1925 87.4524C81.3831 87.4321 82.5504 87.1187 83.5912 86.5401C84.632 85.9615 85.5143 85.1355 86.16 84.1349C86.8743 82.9954 87.2522 81.6773 87.25 80.3324V57.0824C87.2497 56.8205 87.2928 56.5603 87.3775 56.3124C87.5331 55.8809 87.8077 55.5022 88.1697 55.2204C88.5316 54.9385 88.966 54.765 89.4225 54.7199C89.6835 54.699 89.9461 54.721 90.2 54.7849L90.5775 54.9024Z" fill="#0065AB"/>
</svg>
