<?xml version="1.0" encoding="utf-8"?>
<!-- Generator: Adobe Illustrator 19.2.0, SVG Export Plug-In . SVG Version: 6.00 Build 0)  -->
<svg version="1.1" id="Layer_2" xmlns="http://www.w3.org/2000/svg" xmlns:xlink="http://www.w3.org/1999/xlink" x="0px" y="0px"
	 width="144px" height="144px" viewBox="0 0 144 144" style="enable-background:new 0 0 144 144;" xml:space="preserve">
<style type="text/css">
	.st0{opacity:0.15;fill:#007CBB;enable-background:new    ;}
	.st1{opacity:0.4;fill:none;stroke:#007CBB;stroke-linecap:round;stroke-linejoin:round;enable-background:new    ;}
	.st2{opacity:0.4;fill:#007CBB;enable-background:new    ;}
	.st3{opacity:0.5;fill:#FFFFFF;enable-background:new    ;}
	.st4{fill:none;stroke:#007CBB;stroke-linecap:round;stroke-linejoin:round;}
	.st5{fill:#007CBB;}
	.st6{opacity:0.8;fill:#FFFFFF;enable-background:new    ;}
	.st7{fill:#FFFFFF;}
</style>
<title>installer icons final temp</title>
<rect x="17.7" y="48.4" class="st0" width="62.2" height="51"/>
<rect x="17.7" y="48.4" class="st1" width="62.2" height="51"/>
<path class="st2" d="M17.3,48.6c-0.1-0.1-0.1-0.3,0-0.5l9.2-13.7c0.1-0.1,0.2-0.2,0.4-0.2h50.9c0.2,0,0.4,0.2,0.4,0.4l2.2,13.7
	c0,0.2-0.1,0.5-0.4,0.5h-0.1H17.8C17.6,48.8,17.4,48.7,17.3,48.6z M77.4,35.1H27.2l-8.6,12.8h60.9L77.4,35.1z"/>
<polygon class="st3" points="77.4,35.1 27.2,35.1 18.6,47.9 79.4,47.9 "/>
<rect x="57.3" y="66.5" class="st0" width="67.5" height="55.3"/>
<rect x="57.3" y="66.5" class="st4" width="67.5" height="55.3"/>
<path class="st5" d="M124.8,67H57.3c-0.3,0-0.5-0.2-0.5-0.5v-0.1l3.7-17.8c0-0.2,0.3-0.4,0.5-0.4h53c0.2,0,0.3,0.1,0.4,0.2
	l10.8,17.9c0.1,0.2,0.1,0.5-0.2,0.7C125,67,124.9,67,124.8,67z M57.9,66h66l-10.2-16.9H61.4L57.9,66z"/>
<polygon class="st6" points="57.9,66 123.9,66 113.7,49.1 61.4,49.1 "/>
<path class="st7" d="M99.1,47.8l-0.9,0.9l-0.9-0.9h-11l9.1,9.1c1.5,1.5,3.9,1.5,5.4,0l9.1-9.1C109.9,47.8,99.1,47.8,99.1,47.8z"/>
<path class="st5" d="M98.1,55c-0.4,0-0.8-0.2-1.1-0.4l-13.8-14c-0.6-0.6-0.5-1.6,0.1-2.1s1.5-0.5,2,0l12.8,12.8L111,38.5
	c0.6-0.6,1.5-0.6,2.1-0.1c0.6,0.6,0.6,1.5,0.1,2.1c0,0,0,0.1-0.1,0.1L99.2,54.5C98.9,54.8,98.5,54.9,98.1,55z"/>
<path class="st5" d="M98.1,52.4c-0.8,0-1.5-0.7-1.5-1.5V42c0-16-13-28.9-28.9-28.9C54,13,42.2,22.6,39.4,35.9
	c-0.2,0.8-1,1.3-1.8,1.2s-1.3-1-1.2-1.8C40.1,18.1,57,7,74.3,10.7C89,13.9,99.6,26.9,99.6,41.9v9C99.6,51.7,98.9,52.4,98.1,52.4
	L98.1,52.4z"/>
</svg>
