<svg id="bfe007f4-6227-435b-9ccc-a774a3cc2149" data-name="Layer 1" xmlns="http://www.w3.org/2000/svg" xmlns:xlink="http://www.w3.org/1999/xlink" width="327.26" height="295.57" viewBox="0 0 327.26 295.57"><defs><linearGradient id="b2fea02c-6534-4214-9099-80e4f2ba773b" x1="59.42" y1="34.13" x2="320.86" y2="34.13" gradientTransform="matrix(1, 0, 0, -1, 0, 298)" gradientUnits="userSpaceOnUse"><stop offset="0.13" stop-color="#81c6ed" stop-opacity="0"/><stop offset="0.19" stop-color="#81c6ed" stop-opacity="0.1"/><stop offset="0.32" stop-color="#81c6ed" stop-opacity="0.27"/><stop offset="0.43" stop-color="#81c6ed" stop-opacity="0.4"/><stop offset="0.53" stop-color="#81c6ed" stop-opacity="0.47"/><stop offset="0.6" stop-color="#81c6ed" stop-opacity="0.5"/></linearGradient><linearGradient id="ede4e782-84df-4821-9485-00f902667e3f" x1="10045.51" y1="79.44" x2="10045.51" y2="166.39" gradientTransform="translate(10267.26 237.57) rotate(179.43)" gradientUnits="userSpaceOnUse"><stop offset="0" stop-color="#22b9a5"/><stop offset="0.28" stop-color="#22b9a5"/><stop offset="0.84" stop-color="#08968b"/><stop offset="1" stop-color="#08968b"/></linearGradient><linearGradient id="aaabb51b-7f9a-4f9a-87c3-e9674588605b" x1="195.5" y1="36.18" x2="240" y2="36.18" gradientTransform="matrix(1, 0, 0, -1, 0, 298)" gradientUnits="userSpaceOnUse"><stop offset="0.28" stop-color="#3673ac"/><stop offset="1" stop-color="#4896d1"/></linearGradient><linearGradient id="e29f225c-ed29-49b1-b8a8-d53441b8d99c" x1="10255.41" y1="2334.52" x2="10187.47" y2="2272.94" gradientTransform="matrix(-0.92, 0.39, -0.39, -0.92, 10483.83, -1795.95)" gradientUnits="userSpaceOnUse"><stop offset="0.13" stop-color="#cee6f7"/><stop offset="0.24" stop-color="#c7e3f6"/><stop offset="0.38" stop-color="#b5dcf4"/><stop offset="0.55" stop-color="#97cff0"/><stop offset="0.66" stop-color="#81c6ed"/></linearGradient><linearGradient id="f2062d9c-8d69-4e75-a138-fbf4e78888ed" x1="10198.85" y1="2316.09" x2="10253.46" y2="2316.09" gradientTransform="matrix(-0.92, 0.39, -0.39, -0.92, 10483.83, -1795.95)" xlink:href="#ede4e782-84df-4821-9485-00f902667e3f"/><linearGradient id="a13c10a3-e441-4885-884e-b3f905bfd1ad" x1="116.2" y1="157.47" x2="168.71" y2="157.47" gradientTransform="matrix(1, 0, 0, -1, 0, 298)" gradientUnits="userSpaceOnUse"><stop offset="0.28" stop-color="#22b9a5"/><stop offset="0.84" stop-color="#02958a"/></linearGradient><linearGradient id="b6e86be4-728c-4323-805b-cdfcdca4668b" x1="137.14" y1="165.96" x2="108.59" y2="158.63" gradientUnits="userSpaceOnUse"><stop offset="0" stop-color="#2b6396"/><stop offset="0.99" stop-color="#4896d1"/></linearGradient><linearGradient id="b47c0f85-b38a-43e6-a385-ce605eb0acbd" x1="10095.25" y1="-114.39" x2="10095.25" y2="-23.62" gradientTransform="matrix(-1, 0.01, -0.01, -0.93, 10265.86, 52.06)" xlink:href="#ede4e782-84df-4821-9485-00f902667e3f"/><linearGradient id="b2303ce3-ea70-4f37-8222-d399bfb28d1d" x1="10110.32" y1="2204.53" x2="10110.32" y2="2093.63" gradientTransform="translate(10402.39 -1554.35) rotate(158.3)" gradientUnits="userSpaceOnUse"><stop offset="0.48" stop-color="#cee6f7"/><stop offset="0.58" stop-color="#c7e3f6"/><stop offset="0.72" stop-color="#b5dcf4"/><stop offset="0.89" stop-color="#97cff0"/><stop offset="1" stop-color="#81c6ed"/></linearGradient><linearGradient id="f0bccb7d-9987-45a4-bbc2-1ec7aa9bcc73" x1="9849.31" y1="2430.69" x2="9805.16" y2="2430.69" gradientTransform="matrix(-0.88, 0.47, -0.47, -0.88, 10013.46, -2344.01)" gradientUnits="userSpaceOnUse"><stop offset="0" stop-color="#4896d1"/><stop offset="1" stop-color="#81c6ed"/></linearGradient><linearGradient id="b9639b8b-17a7-43dd-8987-a448e69c92aa" x1="134.17" y1="36.18" x2="178.67" y2="36.18" gradientTransform="matrix(1, 0, 0, -1, 0, 298)" gradientUnits="userSpaceOnUse"><stop offset="0.46" stop-color="#3673ac"/><stop offset="1" stop-color="#4896d1"/></linearGradient><linearGradient id="e31da11f-b449-4e13-9aa3-1b25bc64fc2f" x1="10073.13" y1="2204.93" x2="10125.59" y2="2257.39" gradientTransform="translate(10402.39 -1554.35) rotate(158.3)" gradientUnits="userSpaceOnUse"><stop offset="0" stop-color="#eaf7ff"/><stop offset="0.32" stop-color="#cfe6f7"/><stop offset="0.33" stop-color="#cee6f7"/><stop offset="0.74" stop-color="#9bd1f0"/></linearGradient><linearGradient id="af340978-062f-4cf7-b52f-dce7588db400" x1="152.39" y1="174.34" x2="209.36" y2="191.02" gradientTransform="matrix(1, 0, 0, -1, 0, 298)" gradientUnits="userSpaceOnUse"><stop offset="0" stop-color="#fff"/><stop offset="1" stop-color="#fff" stop-opacity="0"/></linearGradient><linearGradient id="ff5e9868-6c5d-4cef-8bf1-752022e38f22" x1="9808.74" y1="2963.52" x2="9834.26" y2="2963.52" gradientTransform="translate(9775.5 -3671.33) rotate(141.52)" xlink:href="#a13c10a3-e441-4885-884e-b3f905bfd1ad"/><linearGradient id="b7c2f942-306a-4c98-92c4-886d41157d14" x1="262.81" y1="218.81" x2="300.49" y2="218.81" gradientTransform="matrix(0.12, 0.99, 0.99, -0.12, 12.13, -83.67)" xlink:href="#aaabb51b-7f9a-4f9a-87c3-e9674588605b"/><linearGradient id="ac3d0d0c-6f0c-4018-aa11-b98e1d9c018a" x1="76.18" y1="160.06" x2="108.23" y2="160.06" gradientTransform="matrix(0.71, 0.71, 0.71, -0.71, -86.18, 185.92)" xlink:href="#f0bccb7d-9987-45a4-bbc2-1ec7aa9bcc73"/><linearGradient id="a88efd3c-3b96-4aa7-9de7-0392838f47c5" x1="135.94" y1="156.15" x2="112.73" y2="150.2" xlink:href="#b6e86be4-728c-4323-805b-cdfcdca4668b"/><linearGradient id="e076c0c0-211f-4a29-87c8-c65279472b95" x1="32.6" y1="69.28" x2="77.18" y2="108.48" gradientUnits="userSpaceOnUse"><stop offset="0" stop-color="#81c6ed"/><stop offset="1" stop-color="#4896d1"/></linearGradient><linearGradient id="ba4f5113-fc49-4455-971d-e6d044006a53" x1="6.4" y1="200.01" x2="79.51" y2="200.01" gradientTransform="matrix(1, 0, 0, -1, 0, 298)" xlink:href="#f0bccb7d-9987-45a4-bbc2-1ec7aa9bcc73"/><linearGradient id="a655bb3e-3378-464c-9615-90ab5a115afc" x1="29.84" y1="83.12" x2="69.57" y2="128.02" gradientUnits="userSpaceOnUse"><stop offset="0" stop-color="#81c6ed" stop-opacity="0.5"/><stop offset="0.37" stop-color="#81c6ed" stop-opacity="0.47"/><stop offset="1" stop-color="#81c6ed" stop-opacity="0"/></linearGradient><linearGradient id="e5ce2c8e-4022-489b-b20d-dd97c75893e9" x1="15.91" y1="55.57" x2="48.94" y2="154.21" gradientUnits="userSpaceOnUse"><stop offset="0.04" stop-color="#fff"/><stop offset="1" stop-color="#fff" stop-opacity="0"/></linearGradient></defs><title>robot magnifying glass-dark</title><ellipse cx="190.14" cy="263.87" rx="130.72" ry="25.91" opacity="0.4" fill="url(#b2fea02c-6534-4214-9099-80e4f2ba773b)"/><path d="M223.16,267.07c-.43-.86-10.63-21.27-13.73-39.88-3.59-21.55,4.88-45.95,5.24-47l10.38,3.65c-.08.23-7.89,22.81-4.77,41.52,2.83,17,12.61,36.55,12.71,36.75Z" fill="url(#ede4e782-84df-4821-9485-00f902667e3f)"/><path d="M222.2,252.86A17.65,17.65,0,0,1,240,270.32l-44.5.47S203.28,253.06,222.2,252.86Z" fill-rule="evenodd" fill="url(#aaabb51b-7f9a-4f9a-87c3-e9674588605b)"/><rect x="149.94" y="17.88" width="2" height="41.57" transform="translate(-4.74 45.2) rotate(-16.77)" fill="#4896d1"/><circle cx="144.51" cy="17.34" r="4.04" fill="#4896d1"/><path d="M218,89,204.9,47.21a28.65,28.65,0,0,0-35.16-18.09h0a28.67,28.67,0,0,0-20.2,32.05l12,46.2Z" fill="url(#e29f225c-ed29-49b1-b8a8-d53441b8d99c)"/><circle cx="167.57" cy="63.53" r="15.14" fill="url(#f2062d9c-8d69-4e75-a138-fbf4e78888ed)"/><path d="M133.7,164.2h-1.22L121,163.7a5,5,0,0,1,.41-10l11.52.47a19.7,19.7,0,0,0,19.51-13.6l6.5-20.21a5,5,0,1,1,9.54,3l0,.07L162,143.63A29.74,29.74,0,0,1,133.7,164.2Z" fill="url(#a13c10a3-e441-4885-884e-b3f905bfd1ad)"/><path d="M126.66,154.7a15,15,0,0,0-4-7.62c-7.11,8.21-21.46,15.22-24.36,16.74,2.82,7.46,10.3,11.94,17.64,10.18C124,172.08,128.75,163.44,126.66,154.7Z" fill="url(#b6e86be4-728c-4323-805b-cdfcdca4668b)"/><path d="M161.71,266.33c-.32-.94-8-23.22-7.25-39.28,1.1-24.13,25.95-44.07,27-44.91l6.58,8.29c-.23.18-22.13,17.81-23,37.1-.63,14,6.61,35.13,6.68,35.34Z" fill="url(#b47c0f85-b38a-43e6-a385-ce605eb0acbd)"/><path d="M156.57,99.35l53.89-16.54,28.87,103.07-64.91,14.53A13.7,13.7,0,0,1,158.08,190c0-.13-.05-.27-.08-.4l-12.47-63.13Z" fill-rule="evenodd" fill="url(#b2303ce3-ea70-4f37-8222-d399bfb28d1d)"/><path d="M227.52,79.48l-17.06,3.33-8.71,26.82L215.81,171a19.68,19.68,0,0,0,23.49,14.93h0a21.41,21.41,0,0,0,16.2-25.58c-.06-.27-.13-.54-.2-.8l-11-41.25C236.94,91.66,227.52,79.48,227.52,79.48Z" fill-rule="evenodd" fill="url(#f0bccb7d-9987-45a4-bbc2-1ec7aa9bcc73)"/><line x1="156.62" y1="179.77" x2="254.1" y2="154.93" fill="none" stroke="#4896d1" stroke-miterlimit="10" stroke-width="2"/><path d="M191.64,127l5.73,24.25a4.11,4.11,0,0,1-2.93,4.91l-23.77,6.4a4.1,4.1,0,0,1-5-2.89c0-.06,0-.11,0-.17l-5.38-24a4.1,4.1,0,0,1,2.89-4.85L186.53,124a4.09,4.09,0,0,1,5.06,2.82A1.21,1.21,0,0,1,191.64,127Z" fill="#81c6ed"/><path d="M160.84,252.86a17.65,17.65,0,0,1,17.83,17.46l-44.5.47S141.92,253.06,160.84,252.86Z" fill-rule="evenodd" fill="url(#b9639b8b-17a7-43dd-8987-a448e69c92aa)"/><polygon points="201.75 109.63 145.51 126.49 156.57 99.35 210.46 82.81 201.75 109.63" fill-rule="evenodd" fill="url(#e31da11f-b449-4e13-9aa3-1b25bc64fc2f)"/><polygon points="201.75 109.63 145.51 126.49 145.95 125.33 202.15 108.27 201.75 109.63" fill-rule="evenodd" fill="url(#af340978-062f-4cf7-b52f-dce7588db400)"/><path d="M265.9,161.92c-.26,0-.51,0-.77,0a5.51,5.51,0,0,1-5-5.93c1.08-13.2-1.7-23.78-8.25-31.45-10-11.68-25.39-13-25.55-13a5.52,5.52,0,0,1,.83-11c.82.06,20.16,1.68,33.08,16.8,8.53,10,12.18,23.27,10.85,39.49A5.5,5.5,0,0,1,265.9,161.92Z" fill="url(#ff5e9868-6c5d-4cef-8bf1-752022e38f22)"/><circle cx="262.07" cy="164.86" r="13.51" transform="translate(57.36 397.14) rotate(-80.78)" fill="url(#b7c2f942-306a-4c98-92c4-886d41157d14)"/><rect x="88.16" y="119.31" width="8.08" height="37.25" transform="translate(-70.53 105.6) rotate(-45)" fill="url(#ac3d0d0c-6f0c-4018-aa11-b98e1d9c018a)"/><rect x="94.47" y="142.3" width="12.45" height="8.24" transform="translate(-74.04 114.09) rotate(-45)" fill="#596d7a"/><path d="M90.58,145.44l9.13-9.14a2.51,2.51,0,0,1,3.55,0h0a2.51,2.51,0,0,1,0,3.55L94.12,149a2.51,2.51,0,0,1-3.54,0h0A2.51,2.51,0,0,1,90.58,145.44Z" fill="#596d7a"/><rect x="108.41" y="140.56" width="17.94" height="45.09" rx="2.84" transform="translate(-80.95 130.77) rotate(-45)" fill="#596d7a"/><path d="M126.66,154.7a17.22,17.22,0,0,0-4-7.62l-17.19,3,0,0,0,.29a4.31,4.31,0,0,0,4.09,4.51l17.31.84C126.81,155.43,126.75,155.07,126.66,154.7Z" fill="url(#a88efd3c-3b96-4aa7-9de7-0392838f47c5)"/><path d="M65.68,75.26c-18.16-18.16-40-25.8-48.74-17.1L10.13,65,12,66.85c.08-.08.15-.17.23-.26,8.1-8.06,28.21-1,45,15.74s23.83,36.88,15.74,45c-.14.14-.29.26-.43.39h.31L76,130.81,82.78,124C91.48,115.22,83.83,93.42,65.68,75.26Z" fill="url(#e076c0c0-211f-4a29-87c8-c65279472b95)"/><path d="M10,65.07c-8.72,8.75-1.08,30.58,17.1,48.76s40,25.83,48.77,17.07S77,100.32,58.8,82.14,18.79,56.32,10,65.07ZM70,125c-7.19,7.19-25.11.92-40-14S8.81,78.16,16,71s25-.94,40,14S77.15,117.82,70,125Z" fill="url(#ba4f5113-fc49-4455-971d-e6d044006a53)"/><path d="M178.66,149.61a1.5,1.5,0,0,1-1.78-1.15l-.35-1.59a4.89,4.89,0,0,1,2-5,3.85,3.85,0,1,0-6-2.35,1.5,1.5,0,0,1-2.9.76l0-.13a6.86,6.86,0,1,1,10.66,4.17,1.89,1.89,0,0,0-.79,2l.34,1.59A1.49,1.49,0,0,1,178.66,149.61Z" fill="#cee6f7"/><circle cx="179.7" cy="153.83" r="2.33" fill="#cee6f7"/><path d="M14,74.12c-3.57,8.41,2.86,23.88,16,37s28.62,19.58,37,16c-9.92-2.07-22.1-9.16-33-20S16.06,84,14,74.12Z" fill="#c4d2d6" style="isolation:isolate"/><ellipse cx="157.72" cy="66.37" rx="2.97" ry="3" transform="translate(-8.67 26.42) rotate(-9.32)" fill="#fffcc0"/><ellipse cx="169.17" cy="64.91" rx="3.33" ry="3.5" transform="translate(98.48 231.75) rotate(-88.03)" fill="#fffcc0"/><path d="M70,125c-7.19,7.19-25.11.92-40-14S8.81,78.16,16,71s25-.94,40,14S77.15,117.82,70,125Z" fill="url(#a655bb3e-3378-464c-9615-90ab5a115afc)"/><path d="M32.69,69.59C25.63,67.2,19.53,67.48,16,71c-7.19,7.16-.89,25.08,14,40,.89.89,1.78,1.74,2.69,2.57Z" opacity="0.5" fill="url(#e5ce2c8e-4022-489b-b20d-dd97c75893e9)"/></svg>